<svg xmlns="http://www.w3.org/2000/svg" width="240" height="240" viewBox="0 0 240 240" role="img">
<title>Mark of this conformance suite: a seal with fifteen ticks, one for each conformance criterion, around a check mark</title>
  <style>
    .mono { font-family: "JetBrains Mono", "IBM Plex Mono", "Menlo", monospace; }
    .sans { font-family: Poppins, Nunito, "SF Pro Rounded", "Segoe UI", system-ui, -apple-system, sans-serif; }
  </style>
<defs><linearGradient id="ring" x1="0" y1="0" x2="1" y2="1"><stop offset="0" stop-color="#0891b2"/><stop offset="0.4" stop-color="#7c3aed"/><stop offset="0.7" stop-color="#db2777"/><stop offset="1" stop-color="#ea580c"/></linearGradient></defs>
<rect x="4" y="4" width="232" height="232" rx="52" fill="#eef1fb"/>
<circle cx="120" cy="120" r="84" fill="none" stroke="url(#ring)" stroke-width="9"/>
<circle cx="120" cy="120" r="56" fill="#ffffff" stroke="#c9cee6" stroke-width="2"/>
<line x1="120" y1="24" x2="120" y2="13" stroke="#4a5fd4" stroke-width="5" stroke-linecap="round"/>
<line x1="159" y1="32.3" x2="163.5" y2="22.3" stroke="#7142e7" stroke-width="5" stroke-linecap="round"/>
<line x1="191.3" y1="55.8" x2="199.5" y2="48.4" stroke="#a232be" stroke-width="5" stroke-linecap="round"/>
<line x1="211.3" y1="90.3" x2="221.8" y2="86.9" stroke="#d32981" stroke-width="5" stroke-linecap="round"/>
<line x1="215.5" y1="130" x2="226.4" y2="131.2" stroke="#e03754" stroke-width="5" stroke-linecap="round"/>
<line x1="203.1" y1="168" x2="212.7" y2="173.5" stroke="#e4433a" stroke-width="5" stroke-linecap="round"/>
<line x1="176.4" y1="197.7" x2="182.9" y2="206.6" stroke="#e44437" stroke-width="5" stroke-linecap="round"/>
<line x1="140" y1="213.9" x2="142.2" y2="224.7" stroke="#e13b4c" stroke-width="5" stroke-linecap="round"/>
<line x1="100" y1="213.9" x2="97.8" y2="224.7" stroke="#db2874" stroke-width="5" stroke-linecap="round"/>
<line x1="63.6" y1="197.7" x2="57.1" y2="206.6" stroke="#af30ae" stroke-width="5" stroke-linecap="round"/>
<line x1="36.9" y1="168" x2="27.3" y2="173.5" stroke="#7c3aed" stroke-width="5" stroke-linecap="round"/>
<line x1="24.5" y1="130" x2="13.6" y2="131.2" stroke="#5359d8" stroke-width="5" stroke-linecap="round"/>
<line x1="28.7" y1="90.3" x2="18.2" y2="86.9" stroke="#366fc9" stroke-width="5" stroke-linecap="round"/>
<line x1="48.7" y1="55.8" x2="40.5" y2="48.4" stroke="#2a78c3" stroke-width="5" stroke-linecap="round"/>
<line x1="81" y1="32.3" x2="76.5" y2="22.3" stroke="#3172c7" stroke-width="5" stroke-linecap="round"/>
<line x1="120" y1="44" x2="120" y2="60" stroke="#5a6289" stroke-width="3" stroke-linecap="round"/>
<line x1="120" y1="180" x2="120" y2="196" stroke="#5a6289" stroke-width="3" stroke-linecap="round"/>
<line x1="44" y1="120" x2="60" y2="120" stroke="#5a6289" stroke-width="3" stroke-linecap="round"/>
<line x1="180" y1="120" x2="196" y2="120" stroke="#5a6289" stroke-width="3" stroke-linecap="round"/>
<polyline points="93,121 112,140 148,100" fill="none" stroke="#151a33" stroke-width="13" stroke-linecap="round" stroke-linejoin="round"/>
<circle cx="186.2" cy="68.3" r="8" fill="#0891b2" stroke="#eef1fb" stroke-width="3"/>
</svg>
